<svg xmlns="http://www.w3.org/2000/svg" viewBox="0 0 256 64">
  <!-- Sparrow sprite sheet: 4 frames of wing animation -->
  
  <!-- Frame 0: Wings neutral -->
  <g transform="translate(0, 0)">
    <ellipse cx="32" cy="32" rx="13" ry="15" fill="#A0522D"/>
    <circle cx="32" cy="18" r="7" fill="#8b6f47"/>
    <circle cx="35" cy="16" r="1.8" fill="#111"/>
    <polygon points="39,16 46,14 39,18" fill="#e6b27a"/>
  </g>
  
  <!-- Frame 1: Wings up -->
  <g transform="translate(64, 0)">
    <ellipse cx="32" cy="32" rx="13" ry="15" fill="#A0522D"/>
    <circle cx="32" cy="18" r="7" fill="#8b6f47"/>
    <circle cx="35" cy="16" r="1.8" fill="#111"/>
    <polygon points="39,16 46,14 39,18" fill="#e6b27a"/>
    <path d="M 21 27 Q 8 13 6 23" stroke="#8b5a39" stroke-width="3" fill="none" stroke-linecap="round"/>
    <path d="M 43 27 Q 56 13 58 23" stroke="#8b5a39" stroke-width="3" fill="none" stroke-linecap="round"/>
  </g>
  
  <!-- Frame 2: Wings mid -->
  <g transform="translate(128, 0)">
    <ellipse cx="32" cy="32" rx="13" ry="15" fill="#A0522D"/>
    <circle cx="32" cy="18" r="7" fill="#8b6f47"/>
    <circle cx="35" cy="16" r="1.8" fill="#111"/>
    <polygon points="39,16 46,14 39,18" fill="#e6b27a"/>
    <path d="M 21 29 Q 10 17 8 27" stroke="#8b5a39" stroke-width="3" fill="none" stroke-linecap="round"/>
    <path d="M 43 29 Q 54 17 56 27" stroke="#8b5a39" stroke-width="3" fill="none" stroke-linecap="round"/>
  </g>
  
  <!-- Frame 3: Wings down -->
  <g transform="translate(192, 0)">
    <ellipse cx="32" cy="32" rx="13" ry="15" fill="#A0522D"/>
    <circle cx="32" cy="18" r="7" fill="#8b6f47"/>
    <circle cx="35" cy="16" r="1.8" fill="#111"/>
    <polygon points="39,16 46,14 39,18" fill="#e6b27a"/>
    <path d="M 21 36 Q 11 29 9 36" stroke="#8b5a39" stroke-width="3" fill="none" stroke-linecap="round"/>
    <path d="M 43 36 Q 53 29 55 36" stroke="#8b5a39" stroke-width="3" fill="none" stroke-linecap="round"/>
  </g>
</svg>